<svg xmlns="http://www.w3.org/2000/svg" width="256" height="256" viewBox="0 0 256 256">
  <!-- Boss Broken Master silhouette prototype ปรับ contrast: เพิ่มขอบทอง/ม่วงให้แยกจากฉากหลังและ Player ชัดขึ้น -->
  <rect width="256" height="256" fill="none"/>
  <g stroke="#ffd166" stroke-width="8" stroke-linejoin="round" stroke-linecap="round">
    <ellipse cx="130" cy="45" rx="25" ry="28" fill="#170f1f"/>
    <path d="M92 84 C102 58 158 58 170 86 L154 166 C149 189 105 189 100 166 Z" fill="#170f1f"/>
    <path d="M99 166 L72 231 L101 231 L122 176 Z" fill="#170f1f"/>
    <path d="M151 166 L177 231 L206 231 L166 176 Z" fill="#170f1f"/>
    <path d="M97 95 L47 125 L61 145 L112 115 Z" fill="#170f1f"/>
    <path d="M164 94 L203 63 L217 82 L178 116 Z" fill="#170f1f"/>
  </g>
  <path d="M201 62 L234 29" stroke="#fff6b0" stroke-width="13" stroke-linecap="round"/>
  <path d="M235 29 L246 18" stroke="#fff6b0" stroke-width="8" stroke-linecap="round" stroke-dasharray="9 8"/>
  <path d="M190 78 L212 57" stroke="#d6a4ff" stroke-width="8" stroke-linecap="round"/>
  <path d="M82 232 H212" stroke="#ffd166" stroke-width="18" stroke-linecap="round"/>
  <path d="M82 232 H212" stroke="#170f1f" stroke-width="10" stroke-linecap="round"/>
  <path d="M104 79 C119 92 143 91 158 78" stroke="#d6a4ff" stroke-width="7" stroke-linecap="round" fill="none" opacity="0.95"/>
</svg>
