<svg xmlns="http://www.w3.org/2000/svg" width="128" height="128" viewBox="0 0 128 128">
  <!-- Player silhouette prototype สำหรับ Phase 6.5: อ่านง่ายบนมือถือ ยังไม่ใช่ final art -->
  <rect width="128" height="128" fill="none"/>
  <ellipse cx="62" cy="27" rx="13" ry="14" fill="#101820"/>
  <path d="M48 45 C49 36 76 36 80 46 L74 82 C72 91 55 91 52 82 Z" fill="#101820"/>
  <path d="M51 82 L40 114 L52 114 L62 89 Z" fill="#101820"/>
  <path d="M72 82 L82 114 L94 114 L82 88 Z" fill="#101820"/>
  <path d="M50 51 L29 72 L36 80 L57 61 Z" fill="#101820"/>
  <path d="M76 51 L96 39 L101 48 L82 63 Z" fill="#101820"/>
  <path d="M86 39 L112 17" stroke="#f4f1bb" stroke-width="6" stroke-linecap="round"/>
  <path d="M81 44 L91 34" stroke="#5bc0eb" stroke-width="4" stroke-linecap="round"/>
  <path d="M43 116 H96" stroke="#101820" stroke-width="8" stroke-linecap="round"/>
</svg>
